<svg xmlns="http://www.w3.org/2000/svg" width="48" height="48" fill="#25d366" viewBox="0 0 448 512">
    <path d="M380.9 97.1C339 55.1 283.6 32 224.6 32c-118.3 0-214 95.7-214 214 0 37.7 9.8 74.5 28.4 107.1L0 480l129.3-33.8c31.3 17.1 66.7 26.1 102.9 26.1h.1c118.3 0 214-95.7 214-214 0-59-23.1-114.4-65.1-156.2zM224.6 438.6c-31.4 0-62.2-8.4-89.1-24.3l-6.4-3.8-76.5 20L75 355.3l-4.1-6.6C53.3 320.4 44 287.7 44 254c0-97.4 79.3-176.7 176.7-176.7 47.2 0 91.5 18.4 124.9 51.9 33.3 33.4 51.7 77.7 51.7 124.8 0 97.4-79.3 176.6-176.7 176.6zm99.1-132.5c-5.4-2.7-31.9-15.8-36.8-17.6-5-1.9-8.6-2.7-12.2 2.7s-14 17.6-17.1 21.2c-3.2 3.6-6.3 4.1-11.7 1.4s-22.8-8.4-43.4-26.8c-16-14.2-26.8-31.6-29.9-36.9s-.3-8.2 2.4-10.9c2.5-2.5 5.4-6.3 8.1-9.5s3.6-5.4 5.4-9 .9-6.8-.5-9.5-12.2-29.4-16.7-40.3c-4.4-10.6-8.9-9.1-12.2-9.3-3.2-.2-6.8-.2-10.4-.2s-9.5 1.4-14.5 6.8-19 18.6-19 45.4 19.5 52.6 22.3 56.3c2.7 3.6 38.3 58.5 92.8 82 12.9 5.6 22.9 8.9 30.7 11.4 12.9 4.1 24.6 3.5 33.9 2.1 10.3-1.5 31.9-13 36.4-25.5s4.5-23.2 3.2-25.5-4.9-3.6-10.3-6.3z"/>
</svg>